<svg width="184" height="82" viewBox="0 0 184 82" fill="none" xmlns="http://www.w3.org/2000/svg">
<g filter="url(#filter0_dd_17_1005)">
<path d="M127.781 50.8125C127.781 52.4167 127.573 53.8646 127.156 55.1562C126.76 56.4271 126.229 57.5521 125.562 58.5312C124.896 59.5104 124.115 60.3438 123.219 61.0312C122.323 61.7188 121.396 62.2812 120.438 62.7188C119.479 63.1562 118.5 63.4792 117.5 63.6875C116.521 63.8958 115.594 64 114.719 64H83.375V55.875H114.719C116.281 55.875 117.49 55.4167 118.344 54.5C119.219 53.5833 119.656 52.3542 119.656 50.8125C119.656 50.0625 119.542 49.375 119.312 48.75C119.083 48.125 118.75 47.5833 118.312 47.125C117.896 46.6667 117.375 46.3125 116.75 46.0625C116.146 45.8125 115.469 45.6875 114.719 45.6875H96.0312C94.7188 45.6875 93.3021 45.4583 91.7812 45C90.2604 44.5208 88.8438 43.7604 87.5312 42.7188C86.2396 41.6771 85.1562 40.3125 84.2812 38.625C83.4271 36.9375 83 34.875 83 32.4375C83 30 83.4271 27.9479 84.2812 26.2812C85.1562 24.5938 86.2396 23.2292 87.5312 22.1875C88.8438 21.125 90.2604 20.3646 91.7812 19.9062C93.3021 19.4271 94.7188 19.1875 96.0312 19.1875H123.688V27.3125H96.0312C94.4896 27.3125 93.2812 27.7812 92.4062 28.7188C91.5521 29.6562 91.125 30.8958 91.125 32.4375C91.125 34 91.5521 35.2396 92.4062 36.1562C93.2812 37.0521 94.4896 37.5 96.0312 37.5H114.719H114.781C115.656 37.5208 116.583 37.6458 117.562 37.875C118.542 38.0833 119.51 38.4167 120.469 38.875C121.448 39.3333 122.375 39.9167 123.25 40.625C124.125 41.3125 124.896 42.1458 125.562 43.125C126.25 44.1042 126.792 45.2292 127.188 46.5C127.583 47.7708 127.781 49.2083 127.781 50.8125ZM179.25 45.25C179.25 47.9792 178.771 50.4896 177.812 52.7812C176.875 55.0729 175.573 57.0521 173.906 58.7188C172.24 60.3646 170.26 61.6562 167.969 62.5938C165.677 63.5312 163.188 64 160.5 64H138.562C137.979 64 137.438 63.8958 136.938 63.6875C136.438 63.4792 136 63.1979 135.625 62.8438C135.271 62.4688 134.99 62.0312 134.781 61.5312C134.573 61.0312 134.469 60.4896 134.469 59.9062V23.2812C134.469 22.7188 134.573 22.1875 134.781 21.6875C134.99 21.1875 135.271 20.75 135.625 20.375C136 20 136.438 19.7083 136.938 19.5C137.438 19.2917 137.979 19.1875 138.562 19.1875H160.5C163.188 19.1875 165.677 19.6562 167.969 20.5938C170.26 21.5312 172.24 22.8333 173.906 24.5C175.573 26.1458 176.875 28.125 177.812 30.4375C178.771 32.7292 179.25 35.2292 179.25 37.9375V45.25ZM171.125 37.9375C171.125 36.3542 170.865 34.9062 170.344 33.5938C169.844 32.2812 169.125 31.1667 168.188 30.25C167.25 29.3125 166.125 28.5938 164.812 28.0938C163.521 27.5729 162.083 27.3125 160.5 27.3125H142.594V55.875H160.5C162.083 55.875 163.521 55.625 164.812 55.125C166.125 54.6042 167.25 53.8854 168.188 52.9688C169.125 52.0312 169.844 50.9167 170.344 49.625C170.865 48.3125 171.125 46.8542 171.125 45.25V37.9375Z" fill="url(#paint0_radial_17_1005)"/>
</g>
<g clip-path="url(#clip0_17_1005)">
<g filter="url(#filter1_d_17_1005)">
<path d="M60 44.3333H57.7333L51.0667 51H57.4333L63.3333 57.6666H16.6667L22.6 51H29.4333L22.7667 44.3333H20L10 54.3333V67.6666C10 71.3333 12.9667 74.3333 16.6333 74.3333H63.3333C65.1014 74.3333 66.7971 73.6309 68.0474 72.3807C69.2976 71.1304 70 69.4347 70 67.6666V54.3333L60 44.3333ZM56.6667 27.5L40.1667 44L28.3667 32.2L44.8667 15.7L56.6667 27.5ZM42.5333 8.63331L21.3 29.8666C20.991 30.175 20.7458 30.5413 20.5786 30.9446C20.4113 31.3478 20.3252 31.7801 20.3252 32.2166C20.3252 32.6532 20.4113 33.0855 20.5786 33.4887C20.7458 33.892 20.991 34.2583 21.3 34.5666L37.8 51.0666C39.1 52.3666 41.2 52.3666 42.5 51.0666L63.7 29.8666C64.009 29.5583 64.2542 29.192 64.4214 28.7887C64.5887 28.3855 64.6748 27.9532 64.6748 27.5166C64.6748 27.0801 64.5887 26.6478 64.4214 26.2446C64.2542 25.8413 64.009 25.475 63.7 25.1666L47.2 8.66664C46.8993 8.35198 46.5384 8.10094 46.1388 7.9284C45.7392 7.75587 45.309 7.66536 44.8737 7.66225C44.4385 7.65914 44.007 7.7435 43.605 7.9103C43.203 8.07711 42.8385 8.32298 42.5333 8.63331Z" fill="url(#paint1_linear_17_1005)"/>
</g>
</g>
<defs>
<filter id="filter0_dd_17_1005" x="79" y="19.1875" width="104.25" height="52.8125" filterUnits="userSpaceOnUse" color-interpolation-filters="sRGB">
<feFlood flood-opacity="0" result="BackgroundImageFix"/>
<feColorMatrix in="SourceAlpha" type="matrix" values="0 0 0 0 0 0 0 0 0 0 0 0 0 0 0 0 0 0 127 0" result="hardAlpha"/>
<feOffset dy="4"/>
<feGaussianBlur stdDeviation="2"/>
<feComposite in2="hardAlpha" operator="out"/>
<feColorMatrix type="matrix" values="0 0 0 0 0 0 0 0 0 0 0 0 0 0 0 0 0 0 0.25 0"/>
<feBlend mode="normal" in2="BackgroundImageFix" result="effect1_dropShadow_17_1005"/>
<feColorMatrix in="SourceAlpha" type="matrix" values="0 0 0 0 0 0 0 0 0 0 0 0 0 0 0 0 0 0 127 0" result="hardAlpha"/>
<feOffset dy="4"/>
<feGaussianBlur stdDeviation="2"/>
<feComposite in2="hardAlpha" operator="out"/>
<feColorMatrix type="matrix" values="0 0 0 0 0 0 0 0 0 0 0 0 0 0 0 0 0 0 0.25 0"/>
<feBlend mode="normal" in2="effect1_dropShadow_17_1005" result="effect2_dropShadow_17_1005"/>
<feBlend mode="normal" in="SourceGraphic" in2="effect2_dropShadow_17_1005" result="shape"/>
</filter>
<filter id="filter1_d_17_1005" x="6" y="7.66217" width="68" height="74.6711" filterUnits="userSpaceOnUse" color-interpolation-filters="sRGB">
<feFlood flood-opacity="0" result="BackgroundImageFix"/>
<feColorMatrix in="SourceAlpha" type="matrix" values="0 0 0 0 0 0 0 0 0 0 0 0 0 0 0 0 0 0 127 0" result="hardAlpha"/>
<feOffset dy="4"/>
<feGaussianBlur stdDeviation="2"/>
<feComposite in2="hardAlpha" operator="out"/>
<feColorMatrix type="matrix" values="0 0 0 0 0 0 0 0 0 0 0 0 0 0 0 0 0 0 0.25 0"/>
<feBlend mode="normal" in2="BackgroundImageFix" result="effect1_dropShadow_17_1005"/>
<feBlend mode="normal" in="SourceGraphic" in2="effect1_dropShadow_17_1005" result="shape"/>
</filter>
<radialGradient id="paint0_radial_17_1005" cx="0" cy="0" r="1" gradientUnits="userSpaceOnUse" gradientTransform="translate(122.291 43.6885) rotate(89.3429) scale(84.5261 63.4478)">
<stop stop-color="white"/>
<stop offset="1" stop-color="#757474"/>
</radialGradient>
<linearGradient id="paint1_linear_17_1005" x1="28.8722" y1="29.8721" x2="61.9549" y2="74.3834" gradientUnits="userSpaceOnUse">
<stop stop-color="white"/>
<stop offset="1" stop-color="#727272"/>
</linearGradient>
<clipPath id="clip0_17_1005">
<rect width="80" height="80" fill="white" transform="translate(0 1)"/>
</clipPath>
</defs>
</svg>
