<svg width="541" height="430" viewBox="0 0 541 430" fill="none" xmlns="http://www.w3.org/2000/svg">
<g filter="url(#filter0_dd_3_19)">
<path d="M107.508 113.328C107.508 116.938 107.039 120.195 106.102 123.102C105.211 125.961 104.016 128.492 102.516 130.695C101.016 132.898 99.2578 134.773 97.2422 136.32C95.2266 137.867 93.1406 139.133 90.9844 140.117C88.8281 141.102 86.625 141.828 84.375 142.297C82.1719 142.766 80.0859 143 78.1172 143H7.59375V124.719H78.1172C81.6328 124.719 84.3516 123.688 86.2734 121.625C88.2422 119.562 89.2266 116.797 89.2266 113.328C89.2266 111.641 88.9688 110.094 88.4531 108.688C87.9375 107.281 87.1875 106.062 86.2031 105.031C85.2656 104 84.0938 103.203 82.6875 102.641C81.3281 102.078 79.8047 101.797 78.1172 101.797H36.0703C33.1172 101.797 29.9297 101.281 26.5078 100.25C23.0859 99.1719 19.8984 97.4609 16.9453 95.1172C14.0391 92.7734 11.6016 89.7031 9.63281 85.9062C7.71094 82.1094 6.75 77.4688 6.75 71.9844C6.75 66.5 7.71094 61.8828 9.63281 58.1328C11.6016 54.3359 14.0391 51.2656 16.9453 48.9219C19.8984 46.5312 23.0859 44.8203 26.5078 43.7891C29.9297 42.7109 33.1172 42.1719 36.0703 42.1719H98.2969V60.4531H36.0703C32.6016 60.4531 29.8828 61.5078 27.9141 63.6172C25.9922 65.7266 25.0312 68.5156 25.0312 71.9844C25.0312 75.5 25.9922 78.2891 27.9141 80.3516C29.8828 82.3672 32.6016 83.375 36.0703 83.375H78.1172H78.2578C80.2266 83.4219 82.3125 83.7031 84.5156 84.2188C86.7188 84.6875 88.8984 85.4375 91.0547 86.4688C93.2578 87.5 95.3438 88.8125 97.3125 90.4062C99.2812 91.9531 101.016 93.8281 102.516 96.0312C104.062 98.2344 105.281 100.766 106.172 103.625C107.062 106.484 107.508 109.719 107.508 113.328ZM203.766 133.789C203.766 135.102 203.531 136.32 203.062 137.445C202.594 138.57 201.938 139.555 201.094 140.398C200.297 141.195 199.336 141.828 198.211 142.297C197.133 142.766 195.961 143 194.695 143H153.352C151.102 143 148.688 142.742 146.109 142.227C143.578 141.711 141.07 140.891 138.586 139.766C136.102 138.594 133.688 137.141 131.344 135.406C129.047 133.625 127.031 131.492 125.297 129.008C123.562 126.477 122.156 123.57 121.078 120.289C120.047 117.008 119.531 113.305 119.531 109.18V66.9922H137.812V109.18C137.812 111.57 138.211 113.727 139.008 115.648C139.852 117.523 140.977 119.141 142.383 120.5C143.789 121.859 145.43 122.914 147.305 123.664C149.227 124.367 151.289 124.719 153.492 124.719H185.484V66.9922H203.766V133.789ZM304.734 117.336C304.734 120.477 304.336 123.312 303.539 125.844C302.742 128.328 301.688 130.531 300.375 132.453C299.062 134.328 297.539 135.945 295.805 137.305C294.07 138.617 292.242 139.695 290.32 140.539C288.445 141.383 286.547 142.016 284.625 142.438C282.703 142.812 280.875 143 279.141 143H246.164V124.719H279.141C281.578 124.719 283.406 124.086 284.625 122.82C285.844 121.555 286.453 119.727 286.453 117.336V92.7266C286.453 90.1953 285.82 88.3203 284.555 87.1016C283.336 85.8828 281.531 85.2734 279.141 85.2734H246.305C243.82 85.2734 241.945 85.9062 240.68 87.1719C239.414 88.3906 238.781 90.1953 238.781 92.5859V166.766H220.5V92.5859C220.5 89.4453 220.898 86.6328 221.695 84.1484C222.492 81.6641 223.547 79.4844 224.859 77.6094C226.219 75.6875 227.766 74.0703 229.5 72.7578C231.234 71.3984 233.039 70.2969 234.914 69.4531C236.836 68.6094 238.758 68 240.68 67.625C242.648 67.2031 244.477 66.9922 246.164 66.9922H279.141C282.281 66.9922 285.094 67.3906 287.578 68.1875C290.062 68.9844 292.242 70.0391 294.117 71.3516C296.039 72.6641 297.656 74.1875 298.969 75.9219C300.328 77.6562 301.43 79.4844 302.273 81.4062C303.117 83.2812 303.727 85.1797 304.102 87.1016C304.523 89.0234 304.734 90.8516 304.734 92.5859V117.336ZM402.117 92.1641C402.117 94.6953 401.672 97.4375 400.781 100.391C399.891 103.297 398.438 106.016 396.422 108.547C394.453 111.031 391.852 113.117 388.617 114.805C385.43 116.492 381.539 117.336 376.945 117.336H343.969V99.9688H376.945C379.43 99.9688 381.352 99.2188 382.711 97.7188C384.07 96.1719 384.75 94.2734 384.75 92.0234C384.75 89.6328 383.977 87.7578 382.43 86.3984C380.93 85.0391 379.102 84.3594 376.945 84.3594H343.969C341.484 84.3594 339.562 85.1328 338.203 86.6797C336.844 88.1797 336.164 90.0547 336.164 92.3047V117.828C336.164 120.266 336.914 122.164 338.414 123.523C339.961 124.883 341.859 125.562 344.109 125.562H376.945V143H343.969C341.438 143 338.695 142.555 335.742 141.664C332.836 140.773 330.117 139.344 327.586 137.375C325.102 135.359 323.016 132.758 321.328 129.57C319.641 126.336 318.797 122.422 318.797 117.828V92.1641C318.797 89.6328 319.242 86.9141 320.133 84.0078C321.023 81.0547 322.453 78.3359 324.422 75.8516C326.438 73.3203 329.039 71.2109 332.227 69.5234C335.461 67.8359 339.375 66.9922 343.969 66.9922H376.945C379.477 66.9922 382.195 67.4375 385.102 68.3281C388.055 69.2188 390.773 70.6719 393.258 72.6875C395.789 74.6562 397.898 77.2578 399.586 80.4922C401.273 83.6797 402.117 87.5703 402.117 92.1641ZM480.938 85.2734H439.805C437.32 85.2734 435.445 85.9062 434.18 87.1719C432.914 88.3906 432.281 90.1953 432.281 92.5859V143H414V92.5859C414 89.4453 414.398 86.6328 415.195 84.1484C415.992 81.6641 417.047 79.4844 418.359 77.6094C419.719 75.6875 421.266 74.0703 423 72.7578C424.734 71.3984 426.539 70.2969 428.414 69.4531C430.336 68.6094 432.258 68 434.18 67.625C436.148 67.2031 437.977 66.9922 439.664 66.9922H480.938V85.2734Z" fill="url(#paint0_radial_3_19)"/>
</g>
<g filter="url(#filter1_dd_3_19)">
<path d="M289.562 271.812C289.562 277.953 288.484 283.602 286.328 288.758C284.219 293.914 281.289 298.367 277.539 302.117C273.789 305.82 269.336 308.727 264.18 310.836C259.023 312.945 253.422 314 247.375 314H198.016C196.703 314 195.484 313.766 194.359 313.297C193.234 312.828 192.25 312.195 191.406 311.398C190.609 310.555 189.977 309.57 189.508 308.445C189.039 307.32 188.805 306.102 188.805 304.789V222.383C188.805 221.117 189.039 219.922 189.508 218.797C189.977 217.672 190.609 216.688 191.406 215.844C192.25 215 193.234 214.344 194.359 213.875C195.484 213.406 196.703 213.172 198.016 213.172H247.375C253.422 213.172 259.023 214.227 264.18 216.336C269.336 218.445 273.789 221.375 277.539 225.125C281.289 228.828 284.219 233.281 286.328 238.484C288.484 243.641 289.562 249.266 289.562 255.359V271.812ZM271.281 255.359C271.281 251.797 270.695 248.539 269.523 245.586C268.398 242.633 266.781 240.125 264.672 238.062C262.562 235.953 260.031 234.336 257.078 233.211C254.172 232.039 250.938 231.453 247.375 231.453H207.086V295.719H247.375C250.938 295.719 254.172 295.156 257.078 294.031C260.031 292.859 262.562 291.242 264.672 289.18C266.781 287.07 268.398 284.562 269.523 281.656C270.695 278.703 271.281 275.422 271.281 271.812V255.359ZM406.422 314H388.141V289.25H323.875V314H305.594V263.586C305.594 256.227 306.859 249.453 309.391 243.266C311.922 237.078 315.438 231.758 319.938 227.305C324.438 222.852 329.758 219.383 335.898 216.898C342.039 214.414 348.742 213.172 356.008 213.172H397.211C398.477 213.172 399.672 213.406 400.797 213.875C401.922 214.344 402.906 215 403.75 215.844C404.594 216.688 405.25 217.672 405.719 218.797C406.188 219.922 406.422 221.117 406.422 222.383V314ZM323.875 270.969H388.141V231.453H356.008C355.445 231.453 354.25 231.547 352.422 231.734C350.641 231.875 348.555 232.273 346.164 232.93C343.82 233.586 341.336 234.594 338.711 235.953C336.086 237.312 333.672 239.188 331.469 241.578C329.266 243.969 327.438 246.969 325.984 250.578C324.578 254.141 323.875 258.477 323.875 263.586V270.969ZM533.547 273.219C533.547 279.359 532.492 285.008 530.383 290.164C528.273 295.32 525.344 299.773 521.594 303.523C517.844 307.273 513.391 310.203 508.234 312.312C503.125 314.375 497.547 315.406 491.5 315.406H466.75C460.703 315.406 455.102 314.375 449.945 312.312C444.789 310.203 440.336 307.273 436.586 303.523C432.836 299.773 429.883 295.32 427.727 290.164C425.617 285.008 424.562 279.359 424.562 273.219V253.953C424.562 247.859 425.617 242.234 427.727 237.078C429.883 231.875 432.836 227.422 436.586 223.719C440.336 219.969 444.789 217.039 449.945 214.93C455.102 212.82 460.703 211.766 466.75 211.766H491.5C497.547 211.766 503.125 212.82 508.234 214.93C513.391 217.039 517.844 219.969 521.594 223.719C525.344 227.422 528.273 231.875 530.383 237.078C532.492 242.234 533.547 247.859 533.547 253.953V273.219ZM515.266 253.953C515.266 250.344 514.68 247.086 513.508 244.18C512.383 241.227 510.766 238.719 508.656 236.656C506.594 234.547 504.086 232.93 501.133 231.805C498.227 230.633 495.016 230.047 491.5 230.047H466.75C463.188 230.047 459.93 230.633 456.977 231.805C454.07 232.93 451.562 234.547 449.453 236.656C447.344 238.719 445.703 241.227 444.531 244.18C443.406 247.086 442.844 250.344 442.844 253.953V273.219C442.844 276.828 443.406 280.109 444.531 283.062C445.703 285.969 447.344 288.477 449.453 290.586C451.562 292.648 454.07 294.266 456.977 295.438C459.93 296.562 463.188 297.125 466.75 297.125H491.359C494.922 297.125 498.156 296.562 501.062 295.438C504.016 294.266 506.547 292.648 508.656 290.586C510.766 288.477 512.383 285.969 513.508 283.062C514.68 280.109 515.266 276.828 515.266 273.219V253.953Z" fill="url(#paint1_radial_3_19)"/>
</g>
<defs>
<filter id="filter0_dd_3_19" x="2.75" y="42.1719" width="482.188" height="132.594" filterUnits="userSpaceOnUse" color-interpolation-filters="sRGB">
<feFlood flood-opacity="0" result="BackgroundImageFix"/>
<feColorMatrix in="SourceAlpha" type="matrix" values="0 0 0 0 0 0 0 0 0 0 0 0 0 0 0 0 0 0 127 0" result="hardAlpha"/>
<feOffset dy="4"/>
<feGaussianBlur stdDeviation="2"/>
<feComposite in2="hardAlpha" operator="out"/>
<feColorMatrix type="matrix" values="0 0 0 0 0 0 0 0 0 0 0 0 0 0 0 0 0 0 0.25 0"/>
<feBlend mode="normal" in2="BackgroundImageFix" result="effect1_dropShadow_3_19"/>
<feColorMatrix in="SourceAlpha" type="matrix" values="0 0 0 0 0 0 0 0 0 0 0 0 0 0 0 0 0 0 127 0" result="hardAlpha"/>
<feOffset dy="4"/>
<feGaussianBlur stdDeviation="2"/>
<feComposite in2="hardAlpha" operator="out"/>
<feColorMatrix type="matrix" values="0 0 0 0 0 0 0 0 0 0 0 0 0 0 0 0 0 0 0.25 0"/>
<feBlend mode="normal" in2="effect1_dropShadow_3_19" result="effect2_dropShadow_3_19"/>
<feBlend mode="normal" in="SourceGraphic" in2="effect2_dropShadow_3_19" result="shape"/>
</filter>
<filter id="filter1_dd_3_19" x="184.805" y="211.766" width="352.742" height="111.641" filterUnits="userSpaceOnUse" color-interpolation-filters="sRGB">
<feFlood flood-opacity="0" result="BackgroundImageFix"/>
<feColorMatrix in="SourceAlpha" type="matrix" values="0 0 0 0 0 0 0 0 0 0 0 0 0 0 0 0 0 0 127 0" result="hardAlpha"/>
<feOffset dy="4"/>
<feGaussianBlur stdDeviation="2"/>
<feComposite in2="hardAlpha" operator="out"/>
<feColorMatrix type="matrix" values="0 0 0 0 0 0 0 0 0 0 0 0 0 0 0 0 0 0 0.25 0"/>
<feBlend mode="normal" in2="BackgroundImageFix" result="effect1_dropShadow_3_19"/>
<feColorMatrix in="SourceAlpha" type="matrix" values="0 0 0 0 0 0 0 0 0 0 0 0 0 0 0 0 0 0 127 0" result="hardAlpha"/>
<feOffset dy="4"/>
<feGaussianBlur stdDeviation="2"/>
<feComposite in2="hardAlpha" operator="out"/>
<feColorMatrix type="matrix" values="0 0 0 0 0 0 0 0 0 0 0 0 0 0 0 0 0 0 0.25 0"/>
<feBlend mode="normal" in2="effect1_dropShadow_3_19" result="effect2_dropShadow_3_19"/>
<feBlend mode="normal" in="SourceGraphic" in2="effect2_dropShadow_3_19" result="shape"/>
</filter>
<radialGradient id="paint0_radial_3_19" cx="0" cy="0" r="1" gradientUnits="userSpaceOnUse" gradientTransform="translate(210.221 137.992) rotate(88.9659) scale(267.005 315.361)">
<stop stop-color="white"/>
<stop offset="1" stop-color="#757474"/>
</radialGradient>
<radialGradient id="paint1_radial_3_19" cx="0" cy="0" r="1" gradientUnits="userSpaceOnUse" gradientTransform="translate(222.128 308.992) rotate(88.9073) scale(267.01 333.217)">
<stop stop-color="white"/>
<stop offset="1" stop-color="#757474"/>
</radialGradient>
</defs>
</svg>
