<svg width="140" height="154" viewBox="0 0 140 154" fill="none" xmlns="http://www.w3.org/2000/svg">
<g filter="url(#filter0_d_4_47)">
<path d="M113.5 80.25H108.57L94.07 94.75H107.917L120.75 109.25H19.25L32.155 94.75H47.0175L32.5175 80.25H26.5L4.75 102V131C4.75 138.975 11.2025 145.5 19.1775 145.5H120.75C124.596 145.5 128.284 143.972 131.003 141.253C133.722 138.534 135.25 134.846 135.25 131V102L113.5 80.25ZM106.25 43.6375L70.3625 79.525L44.6975 53.86L80.585 17.9725L106.25 43.6375ZM75.51 2.6025L29.3275 48.785C28.6554 49.4557 28.1222 50.2524 27.7584 51.1295C27.3945 52.0065 27.2073 52.9467 27.2073 53.8962C27.2073 54.8458 27.3945 55.786 27.7584 56.663C28.1222 57.5401 28.6554 58.3368 29.3275 59.0075L65.215 94.895C68.0425 97.7225 72.61 97.7225 75.4375 94.895L121.548 48.785C122.22 48.1143 122.753 47.3176 123.117 46.4405C123.48 45.5635 123.668 44.6233 123.668 43.6737C123.668 42.7242 123.48 41.784 123.117 40.907C122.753 40.0299 122.22 39.2332 121.548 38.5625L85.66 2.675C85.0059 1.99061 84.221 1.44459 83.3518 1.06933C82.4827 0.694067 81.547 0.497215 80.6003 0.490453C79.6537 0.483691 78.7153 0.667157 77.8409 1.02996C76.9664 1.39277 76.1738 1.92753 75.51 2.6025Z" fill="url(#paint0_linear_4_47)"/>
</g>
<defs>
<filter id="filter0_d_4_47" x="0.75" y="0.490273" width="138.5" height="153.01" filterUnits="userSpaceOnUse" color-interpolation-filters="sRGB">
<feFlood flood-opacity="0" result="BackgroundImageFix"/>
<feColorMatrix in="SourceAlpha" type="matrix" values="0 0 0 0 0 0 0 0 0 0 0 0 0 0 0 0 0 0 127 0" result="hardAlpha"/>
<feOffset dy="4"/>
<feGaussianBlur stdDeviation="2"/>
<feComposite in2="hardAlpha" operator="out"/>
<feColorMatrix type="matrix" values="0 0 0 0 0 0 0 0 0 0 0 0 0 0 0 0 0 0 0.25 0"/>
<feBlend mode="normal" in2="BackgroundImageFix" result="effect1_dropShadow_4_47"/>
<feBlend mode="normal" in="SourceGraphic" in2="effect1_dropShadow_4_47" result="shape"/>
</filter>
<linearGradient id="paint0_linear_4_47" x1="45.797" y1="48.797" x2="117.752" y2="145.609" gradientUnits="userSpaceOnUse">
<stop stop-color="white"/>
<stop offset="1" stop-color="#727272"/>
</linearGradient>
</defs>
</svg>
